<?xml version="1.0" standalone="no"?>
<!DOCTYPE svg PUBLIC "-//W3C//DTD SVG 20010904//EN"
 "http://www.w3.org/TR/2001/REC-SVG-20010904/DTD/svg10.dtd">
<svg version="1.0" xmlns="http://www.w3.org/2000/svg"
 width="700.000000pt" height="700.000000pt" viewBox="0 0 700.000000 700.000000"
 preserveAspectRatio="xMidYMid meet">
<metadata>
Created by potrace 1.14, written by Peter Selinger 2001-2017
</metadata>
<g transform="translate(0.000000,700.000000) scale(0.100000,-0.100000)"
fill="#000000" stroke="none">
<path d="M3308 6956 c-1 -2 -43 -6 -93 -10 -49 -4 -119 -12 -155 -17 -36 -6
-81 -13 -100 -15 -19 -2 -57 -9 -85 -14 -27 -6 -59 -12 -70 -14 -143 -27 -418
-112 -585 -181 -242 -99 -531 -256 -690 -375 -203 -152 -209 -157 -334 -269
-444 -398 -802 -954 -977 -1520 -30 -94 -83 -297 -93 -356 -16 -82 -36 -205
-41 -245 -3 -25 -7 -61 -10 -80 -22 -171 -22 -524 0 -725 18 -161 24 -199 51
-334 69 -343 214 -728 386 -1024 38 -66 152 -248 170 -272 5 -5 40 -53 79
-105 99 -132 173 -216 313 -355 145 -144 171 -167 305 -274 461 -367 1063
-627 1631 -706 25 -3 59 -8 75 -11 17 -2 59 -7 95 -10 36 -3 83 -8 105 -10 48
-5 426 -5 475 0 19 2 73 7 120 11 47 4 87 8 90 10 3 2 32 6 64 10 60 6 204 34
309 60 548 135 1042 392 1476 770 47 40 236 229 286 285 342 380 605 855 750
1355 15 50 29 101 31 115 3 14 10 43 16 65 6 22 12 54 15 70 2 17 8 46 13 65
5 19 14 73 20 120 7 47 14 96 16 110 26 189 26 620 -1 830 -14 107 -39 256
-57 330 -11 47 -22 95 -24 108 -19 97 -117 380 -190 547 -90 207 -274 523
-391 670 -13 17 -27 35 -31 40 -282 370 -663 697 -1077 926 -307 169 -645 292
-995 363 -113 23 -143 28 -260 40 -30 4 -71 9 -90 12 -38 6 -536 14 -542 10z
m1119 -2089 c6 -4 10 -391 10 -1157 l0 -1150 -21 -1 c-29 0 -249 0 -313 0
l-53 1 0 137 0 137 -37 -45 c-127 -150 -266 -235 -418 -256 -276 -38 -536 66
-699 280 -85 113 -150 258 -170 377 -3 19 -8 46 -11 60 -7 33 -7 258 0 290 2
13 7 42 11 65 7 54 48 174 80 238 129 257 383 418 663 421 47 0 109 -3 138 -7
125 -17 259 -93 375 -210 l68 -70 0 446 0 446 23 3 c40 6 343 2 354 -5z m1183
-571 c90 -13 220 -45 295 -73 67 -25 213 -96 227 -111 3 -4 -16 -47 -44 -97
-27 -49 -70 -128 -94 -175 -24 -47 -48 -91 -52 -98 -7 -11 -24 -6 -78 21 -179
91 -403 142 -501 115 -58 -15 -74 -35 -71 -82 3 -36 8 -43 48 -68 25 -15 128
-53 230 -84 213 -65 299 -100 391 -161 146 -95 210 -213 211 -387 0 -230 -100
-396 -297 -491 -120 -58 -223 -79 -395 -80 -123 0 -222 7 -275 19 -133 32
-169 42 -230 64 -76 28 -211 96 -275 138 l-39 26 51 81 c28 45 56 91 62 102
38 68 110 175 118 175 6 0 36 -16 67 -34 155 -95 340 -150 506 -151 91 0 137
15 154 51 36 80 -25 124 -264 189 -316 86 -470 172 -548 306 -79 134 -81 345
-6 498 78 161 271 282 488 308 25 3 47 6 48 8 6 5 223 -2 273 -9z m-3780 -70
c180 -16 368 -105 505 -241 54 -54 94 -107 146 -195 37 -61 83 -206 94 -295
29 -229 -31 -451 -175 -649 -38 -53 -156 -158 -222 -197 -40 -24 -75 -44 -78
-44 -3 0 -14 -6 -25 -12 -26 -14 -150 -52 -195 -59 -81 -14 -255 -10 -334 6
-258 53 -472 220 -585 455 -22 44 -44 98 -50 120 -64 223 -41 470 63 670 36
71 31 63 99 145 113 138 263 232 447 280 43 11 214 28 235 24 6 -2 39 -5 75
-8z"/>
<path d="M3490 3926 c-230 -39 -389 -243 -394 -506 -6 -271 121 -472 342 -540
63 -20 170 -28 209 -16 10 3 30 7 46 10 48 8 136 57 189 105 223 200 234 597
21 816 -105 109 -258 157 -413 131z"/>
<path d="M1595 4003 c-311 -66 -506 -368 -464 -719 31 -257 221 -470 472 -529
74 -17 225 -12 297 10 193 60 338 207 401 405 19 60 23 97 24 190 0 132 -6
175 -34 251 -110 290 -403 455 -696 392z"/>
</g>
</svg>
